<svg xmlns="http://www.w3.org/2000/svg" viewBox="0 0 1600 1067" role="img" aria-labelledby="title"><title id="title">知识生长的地形：从好奇，经由观察、实践与解释；连接需要检验，也允许返回与放下</title><defs><pattern id="grid" width="32" height="32" patternUnits="userSpaceOnUse"><path d="M32 0H0V32" fill="none" stroke="currentColor" stroke-opacity=".09" stroke-width="1"/></pattern><linearGradient id="indigo" x1="0" y1="0" x2="1" y2="1"><stop stop-color="#273651"/><stop offset="1" stop-color="#57608b"/></linearGradient><linearGradient id="paper" x1="0" y1="0" x2="1" y2="1"><stop stop-color="#f4edde"/><stop offset="1" stop-color="#e8dfc9"/></linearGradient></defs><rect x="0" y="0" width="1600" height="1067" fill="#e7e5d8" /><g font-family="'Microsoft YaHei', 'PingFang SC', sans-serif"><g transform="scale(1.6666666666666667)"><rect x="0" y="0" width="960" height="640" fill="#e7e5d8" /><circle cx="724" cy="165" r="80" fill="#d8c296" />
    <path d="M0 363Q161 178 340 312T674 262T960 323V640H0Z" fill="#acb6a2"/>
    <path d="M0 429Q112 331 278 386T601 355T960 397V640H0Z" fill="#7f9480"/>
    <path d="M0 511Q213 380 413 470T760 440T960 452V640H0Z" fill="#536f60"/>
    <path d="M0 605Q183 484 417 545T790 508T960 539V640H0Z" fill="#314f44"/>
    <path d="M436 643C442 531 590 520 561 454S442 398 489 335S588 262 572 216" fill="none" stroke="#e4dbc1" stroke-width="6" opacity=".78"/>
    <circle cx="489" cy="335" r="9" fill="#e7e3cc" stroke="#688675" stroke-width="2"/><text x="510" y="340" font-size="17" fill="#f7f3df" >觉察</text><circle cx="561" cy="454" r="9" fill="#e7e3cc" stroke="#688675" stroke-width="2"/><text x="582" y="459" font-size="17" fill="#f7f3df" >实践</text><circle cx="461" cy="571" r="9" fill="#e7e3cc" stroke="#688675" stroke-width="2"/><text x="482" y="576" font-size="17" fill="#f7f3df" >理解</text><circle cx="572" cy="216" r="9" fill="#e7e3cc" stroke="#688675" stroke-width="2"/><text x="593" y="221" font-size="17" fill="#f7f3df" >好奇</text><circle cx="689" cy="374" r="9" fill="#e7e3cc" stroke="#688675" stroke-width="2"/><text x="710" y="379" font-size="17" fill="#f7f3df" >连接</text><circle cx="304" cy="452" r="9" fill="#e7e3cc" stroke="#688675" stroke-width="2"/><text x="325" y="457" font-size="17" fill="#f7f3df" >沉淀</text>
    <path d="M489 335 689 374 561 454 304 452 461 571M304 452 489 335" fill="none" stroke="#e9e3c9" stroke-width="1" stroke-dasharray="3 7" opacity=".6"/>
    <text x="47" y="52" font-size="13" fill="#758070" letter-spacing="3" font-family="Arial, sans-serif">THE TOPOGRAPHY OF UNDERSTANDING</text><text x="46" y="132" font-size="47" fill="#3f594b" font-weight="500">知识生长的地形</text><text x="49" y="180" font-size="22" fill="#81917c" >有些连接带来理解，有些需要被放下。</text>
    <g font-size="13" fill="#f7f3df"><text x="496" y="287">带着问题看</text><text x="505" y="402">拿结果核对</text><text x="380" y="510">允许返回重画</text><text x="605" y="420">连线先是猜想</text><text x="239" y="493">保留依据与条件</text></g><text x="48" y="605" font-size="13" fill="#d7dfcc" letter-spacing="3" font-family="Arial, sans-serif">本站原创隐喻地图 · 虚线表示待检验联系，不表示已证实因果</text></g></g></svg>
