<svg xmlns="http://www.w3.org/2000/svg" width="520" height="360" viewBox="0 0 520 360" role="img" aria-labelledby="title"><title id="title">把目光留给此刻</title><rect width="520" height="360" rx="24" fill="#ecebd7"/><path d="M26 25h37m-37 0v30m431-30h37v30M26 305v29h37m394 0h37v-29" stroke="#b9b394" stroke-width="1.5" fill="none" opacity=".5"/><path d="M94 109l262-17 21 196-263 15Z" fill="#fcf7df" stroke="#c5bb91" stroke-width="2"/><path d="M146 220c-37-69 3-110 81-122 11 77-12 121-81 122Z" fill="#92ad79" stroke="#648056" stroke-width="2"/><path d="M135 245l70-122" stroke="#648056" stroke-width="4"/><ellipse cx="187" cy="151" rx="10" ry="14" fill="#fcf7df"/><circle cx="301" cy="168" r="57" fill="#f4f7e0" fill-opacity=".8" stroke="#647d59" stroke-width="10"/><path d="M345 210l49 50" stroke="#647d59" stroke-width="19" stroke-linecap="round"/><path d="M278 179c-13-35 12-53 41-54-1 37-11 62-41 54Z" fill="#a0b786"/><path d="M279 184l29-46" stroke="#5e794f" stroke-width="3"/><ellipse cx="301" cy="152" rx="6" ry="9" fill="#f4f7e0"/><text x="260" y="327" text-anchor="middle" fill="#63705c" font-family="system-ui,Microsoft YaHei,sans-serif" font-size="15" letter-spacing="2">把目光留给此刻</text></svg>
